<?xml version="1.0" encoding="utf-8"?>
<!-- Generator: Adobe Illustrator 19.0.1, SVG Export Plug-In . SVG Version: 6.00 Build 0)  -->
<!DOCTYPE svg PUBLIC "-//W3C//DTD SVG 1.1//EN" "http://www.w3.org/Graphics/SVG/1.1/DTD/svg11.dtd">
<svg version="1.1" id="Layer_1" xmlns="http://www.w3.org/2000/svg" xmlns:xlink="http://www.w3.org/1999/xlink" x="0px" y="0px"
	 viewBox="-219 329 100 100" style="enable-background:new -219 329 100 100;" xml:space="preserve">
<style type="text/css">
	.st0{display:none;stroke:#FF00FF;stroke-width:0.25;stroke-miterlimit:10;}
</style>
<rect x="-214" y="334" class="st0" width="90" height="90"/>
<g>
	<g>
		<rect x="-173.7" y="342.5" width="35" height="7.8"/>
	</g>
	<g>
		<rect x="-213.7" y="342.5" width="19.8" height="7.8"/>
	</g>
	<g>
		<rect x="-213.7" y="407.8" width="30.3" height="7.8"/>
	</g>
	<g>
		<rect x="-163.9" y="407.8" width="25.3" height="7.8"/>
	</g>
	<g>
		<rect x="-213.7" y="375.1" width="64.9" height="7.8"/>
	</g>
	<g>
		<path d="M-183.8,360.3c-7.8,0-14-6.2-14-14c0-7.8,6.2-14,14-14c7.8,0,14,6.2,14,14C-169.8,354.1-176,360.3-183.8,360.3z
			 M-183.8,340.1c-3.5,0-6.2,2.7-6.2,6.2s2.7,6.2,6.2,6.2c3.5,0,6.2-2.7,6.2-6.2C-177.6,342.9-180.3,340.1-183.8,340.1z"/>
	</g>
	<g>
		<path d="M-138.3,393c-7.8,0-14-6.2-14-14c0-7.8,6.2-14,14-14c7.8,0,14,6.2,14,14C-124.3,386.8-130.9,393-138.3,393z M-138.3,372.8
			c-3.5,0-6.2,2.7-6.2,6.2s2.7,6.2,6.2,6.2c3.5,0,6.2-2.7,6.2-6.2S-135.2,372.8-138.3,372.8z"/>
	</g>
	<g>
		<path d="M-173.3,425.6c-7.8,0-14-6.2-14-14c0-7.8,6.2-14,14-14s14,6.2,14,14C-159.3,419.4-165.5,425.6-173.3,425.6z M-173.3,405.4
			c-3.5,0-6.2,2.7-6.2,6.2s2.7,6.2,6.2,6.2s6.2-2.7,6.2-6.2S-169.8,405.4-173.3,405.4z"/>
	</g>
</g>
</svg>
